# xmcd
#
# Track frame offsets:
#	180
#	19581
#	38918
#	62034
#	78835
#	98443
#	119112
#	139799
#	151752
#	171590
#
# Disc length: 2594
#
# Revision: 2
# Processed by: cddbd v1.5.2PL0 Copyright (c) Steve Scherf et al.
# Submitted via: dBpowerAMP V4.0
# Normalized: r0:TRMNUM
#
DISCID=7a0a200a
DTITLE=חווה אלברשטיין - קולות
DYEAR=1900
DGENRE=Ballad
TTITLE0=קולות
TTITLE1=כמו עשב בניסן
TTITLE2=שבת בליבך
TTITLE3=הצביה
TTITLE4=ציפור שניה
TTITLE5=מנסה לומר
TTITLE6=מחשבות על יובש ועל עננים
TTITLE7=לו באת
TTITLE8=עד סוף הקיץ
TTITLE9=איך חלפו השנים
EXTD=
EXTT0=
EXTT1=
EXTT2=
EXTT3=
EXTT4=
EXTT5=
EXTT6=
EXTT7=
EXTT8=
EXTT9=
PLAYORDER=
